<svg width="300" height="300" viewBox="0 0 3184 3184" fill="none" xmlns="http://www.w3.org/2000/svg">
<g clip-path="url(#clip0)">
<path d="M3184 0H0V3184H3184V0Z" fill="#010101"/>
<path d="M3689.46 3502.4L2909.38 2933.26L2069.6 2626.8L1229.82 2141.24L159.201 2384.02L1174.1 3040.72L503.471 3500.41L159.201 2384.02L-784.059 1962.14L405.961 1520.36L-123.379 911.42L503.471 316.41L-274.619 -250.74M3060.62 911.42L4127.26 1038.38L3060.62 911.42Z" stroke="#fff" stroke-width="0.5"/>
<path d="M1472.6 3601.9L1174.1 3040.72M-123.379 911.42L943.261 1038.78L1552.2 1520.36L2399.94 1962.14L1227.83 2139.25L403.971 1518.37L-123.379 911.42Z" stroke="#fff" stroke-width="0.5"/>
<path d="M2069.6 2626.8L2300.44 3351.16L2909.38 2933.26L3343.2 2384.02L2399.94 1962.14L2069.6 2626.8ZM2069.6 2626.8L1174.1 3040.72L1229.82 2141.24L1552.2 1520.36L2145.22 1070.62L3060.62 911.42L2298.45 165.17L1472.6 417.9L1174.1 -143.28L503.471 316.41L943.261 1038.78L405.961 1520.36L159.201 2384.02L-274.619 2933.26L505.461 3502.4" stroke="#fff" stroke-width="0.5"/>
<path d="M1552.2 1520.36H405.961M2069.6 -557.2L2302.43 169.15L2909.38 -250.74L2069.6 -557.2ZM2399.94 1962.14L2145.22 1070.62L943.261 1038.78L1472.6 417.9L2399.94 1962.14ZM3589.96 1520.36L2145.22 1070.62L3589.96 1520.36Z" stroke="#fff" stroke-width="0.5"/>
<path d="M405.961 1520.36L-1038.78 1070.62M-883.559 167.16L503.471 316.41L1472.6 417.9L2145.22 1070.62L2298.45 165.17L3689.46 318.4L3060.62 911.42L3589.96 1520.36L2399.94 1962.14L2909.38 2933.26L-883.559 167.16ZM1174.1 -143.28L2298.45 165.17L1174.1 -143.28ZM2300.44 3351.16L1174.1 3040.72L2300.44 3351.16ZM159.201 -799.98L505.461 318.4L159.201 -799.98Z" stroke="#fff" stroke-width="0.5"/>
<path d="M3060.62 931.32C3071.61 931.32 3080.52 922.41 3080.52 911.42C3080.52 900.43 3071.61 891.52 3060.62 891.52C3049.63 891.52 3040.72 900.43 3040.72 911.42C3040.72 922.41 3049.63 931.32 3060.62 931.32Z" fill="#555455"/>
<path d="M2145.22 1090.52C2156.21 1090.52 2165.12 1081.61 2165.12 1070.62C2165.12 1059.63 2156.21 1050.72 2145.22 1050.72C2134.23 1050.72 2125.32 1059.63 2125.32 1070.62C2125.32 1081.61 2134.23 1090.52 2145.22 1090.52Z" fill="#555455"/>
<path d="M2399.94 1982.04C2410.93 1982.04 2419.84 1973.13 2419.84 1962.14C2419.84 1951.15 2410.93 1942.24 2399.94 1942.24C2388.95 1942.24 2380.04 1951.15 2380.04 1962.14C2380.04 1973.13 2388.95 1982.04 2399.94 1982.04Z" fill="#555455"/>
<path d="M2909.38 2953.16C2920.37 2953.16 2929.28 2944.25 2929.28 2933.26C2929.28 2922.27 2920.37 2913.36 2909.38 2913.36C2898.39 2913.36 2889.48 2922.27 2889.48 2933.26C2889.48 2944.25 2898.39 2953.16 2909.38 2953.16Z" fill="#555455"/>
<path d="M2069.6 2646.7C2080.59 2646.7 2089.5 2637.79 2089.5 2626.8C2089.5 2615.81 2080.59 2606.9 2069.6 2606.9C2058.61 2606.9 2049.7 2615.81 2049.7 2626.8C2049.7 2637.79 2058.61 2646.7 2069.6 2646.7Z" fill="#555455"/>
<path d="M1229.82 2161.14C1240.81 2161.14 1249.72 2152.23 1249.72 2141.24C1249.72 2130.25 1240.81 2121.34 1229.82 2121.34C1218.83 2121.34 1209.92 2130.25 1209.92 2141.24C1209.92 2152.23 1218.83 2161.14 1229.82 2161.14Z" fill="#555455"/>
<path d="M1174.1 3060.62C1185.09 3060.62 1194 3051.71 1194 3040.72C1194 3029.73 1185.09 3020.82 1174.1 3020.82C1163.11 3020.82 1154.2 3029.73 1154.2 3040.72C1154.2 3051.71 1163.11 3060.62 1174.1 3060.62Z" fill="#555455"/>
<path d="M159.201 2403.92C170.191 2403.92 179.101 2395.01 179.101 2384.02C179.101 2373.03 170.191 2364.12 159.201 2364.12C148.21 2364.12 139.301 2373.03 139.301 2384.02C139.301 2395.01 148.21 2403.92 159.201 2403.92Z" fill="#555455"/>
<path d="M405.961 1540.26C416.951 1540.26 425.861 1531.35 425.861 1520.36C425.861 1509.37 416.951 1500.46 405.961 1500.46C394.97 1500.46 386.061 1509.37 386.061 1520.36C386.061 1531.35 394.97 1540.26 405.961 1540.26Z" fill="#555455"/>
<path d="M505.461 338.3C516.451 338.3 525.361 329.39 525.361 318.4C525.361 307.41 516.451 298.5 505.461 298.5C494.47 298.5 485.561 307.41 485.561 318.4C485.561 329.39 494.47 338.3 505.461 338.3Z" fill="#555455"/>
<path d="M1472.6 437.8C1483.59 437.8 1492.5 428.89 1492.5 417.9C1492.5 406.91 1483.59 398 1472.6 398C1461.61 398 1452.7 406.91 1452.7 417.9C1452.7 428.89 1461.61 437.8 1472.6 437.8Z" fill="#555455"/>
<path d="M2300.44 187.06C2311.43 187.06 2320.34 178.15 2320.34 167.16C2320.34 156.17 2311.43 147.26 2300.44 147.26C2289.45 147.26 2280.54 156.17 2280.54 167.16C2280.54 178.15 2289.45 187.06 2300.44 187.06Z" fill="#555455"/>
<path d="M943.261 1058.68C954.252 1058.68 963.161 1049.77 963.161 1038.78C963.161 1027.79 954.252 1018.88 943.261 1018.88C932.271 1018.88 923.361 1027.79 923.361 1038.78C923.361 1049.77 932.271 1058.68 943.261 1058.68Z" fill="#555455"/>
<path d="M1552.2 1540.26C1563.19 1540.26 1572.1 1531.35 1572.1 1520.36C1572.1 1509.37 1563.19 1500.46 1552.2 1500.46C1541.21 1500.46 1532.3 1509.37 1532.3 1520.36C1532.3 1531.35 1541.21 1540.26 1552.2 1540.26Z" fill="#555455"/>
</g>
<defs>
<clipPath id="clip0">
<rect width="3184" height="3184" fill="white"/>
</clipPath>
</defs>
</svg>
