<svg width="24" height="24" viewBox="0 0 24 24" fill="none" xmlns="http://www.w3.org/2000/svg">
<path fill-rule="evenodd" clip-rule="evenodd" d="M16 2H8C4.68629 2 2 4.68629 2 8V16C2 19.3137 4.68629 22 8 22H16C19.3137 22 22 19.3137 22 16V8C22 4.68629 19.3137 2 16 2ZM4 8C4 5.79086 5.79086 4 8 4H16C18.2091 4 20 5.79086 20 8V16C20 18.2091 18.2091 20 16 20H8C5.79086 20 4 18.2091 4 16V8ZM12 17C9.23858 17 7 14.7614 7 12C7 9.23858 9.23858 7 12 7C14.7614 7 17 9.23858 17 12C17 14.7614 14.7614 17 12 17ZM12 15C13.6569 15 15 13.6569 15 12C15 10.3431 13.6569 9 12 9C10.3431 9 9 10.3431 9 12C9 13.6569 10.3431 15 12 15ZM18 7C18 7.55228 17.5523 8 17 8C16.4477 8 16 7.55228 16 7C16 6.44772 16.4477 6 17 6C17.5523 6 18 6.44772 18 7Z" fill="#3E3E3E"/>
<g clip-path="url(#clip0)">
<path d="M2.4382 1.56487C0.630783 3.44225 1.0007 5.43654 1.0007 11.4951C1.0007 16.5264 0.122866 21.5701 4.71712 22.7575C6.15174 23.1264 18.8631 23.1264 20.2958 22.7555C22.2086 22.262 23.7649 20.7105 23.9777 18.0051C24.0074 17.6275 24.0074 5.36945 23.9767 4.9842C23.7506 2.1025 21.9767 0.441704 19.6393 0.105329C19.1036 0.0277039 18.9963 0.00470389 16.2478 -8.7779e-05C6.49866 0.00470389 4.36157 -0.429421 2.4382 1.56487Z" fill="url(#paint0_linear)"/>
<path d="M12.4995 3.0082C9.01982 3.0082 5.71549 2.69865 4.45337 5.93782C3.93203 7.27565 4.00774 9.01311 4.00774 11.5009C4.00774 13.684 3.93778 15.7358 4.45337 17.0631C5.71262 20.3042 9.04378 19.9937 12.4976 19.9937C15.8297 19.9937 19.2654 20.3406 20.5428 17.0631C21.0651 15.7119 20.9884 14.0003 20.9884 11.5009C20.9884 8.1832 21.1715 6.04132 19.5624 4.43324C17.9333 2.80407 15.7301 3.0082 12.4957 3.0082H12.4995ZM11.7386 4.53865C18.997 4.52715 19.9209 3.72024 19.411 14.9299C19.2299 18.8945 16.2112 18.4594 12.5005 18.4594C5.73466 18.4594 5.54012 18.2658 5.54012 11.4971C5.54012 4.64982 6.07678 4.54249 11.7386 4.53674V4.53865ZM17.0324 5.94836C16.4699 5.94836 16.0137 6.40453 16.0137 6.96707C16.0137 7.52961 16.4699 7.98578 17.0324 7.98578C17.595 7.98578 18.0512 7.52961 18.0512 6.96707C18.0512 6.40453 17.595 5.94836 17.0324 5.94836ZM12.4995 7.13957C10.0912 7.13957 8.13912 9.09265 8.13912 11.5009C8.13912 13.9092 10.0912 15.8614 12.4995 15.8614C14.9078 15.8614 16.859 13.9092 16.859 11.5009C16.859 9.09265 14.9078 7.13957 12.4995 7.13957ZM12.4995 8.67003C16.2418 8.67003 16.2466 14.3319 12.4995 14.3319C8.7582 14.3319 8.75245 8.67003 12.4995 8.67003Z" fill="white"/>
<path d="M19.6875 23H5.3125C2.93056 23 1 21.0694 1 18.6875V4.3125C1 1.93056 2.93056 0 5.3125 0H19.6875C22.0694 0 24 1.93056 24 4.3125V18.6875C24 21.0694 22.0694 23 19.6875 23Z" fill="#FFE6E2"/>
<path d="M12.4997 8.57837C10.8848 8.57837 9.57812 9.88723 9.57812 11.5C9.57812 13.1142 10.887 14.4216 12.4997 14.4216C14.1146 14.4216 15.4214 13.1128 15.4214 11.5C15.4214 9.88509 14.1125 8.57837 12.4997 8.57837ZM12.4997 13.3967C11.4521 13.3967 10.603 12.5476 10.603 11.5C10.603 10.4523 11.4521 9.60325 12.4997 9.60325C13.5474 9.60325 14.3965 10.4516 14.3965 11.5C14.3965 12.5476 13.5474 13.3967 12.4997 13.3967Z" fill="#FD907E"/>
<path d="M14.8835 5.75558C13.8199 5.70572 11.1853 5.70789 10.1202 5.75558C9.18439 5.79966 8.35918 6.02582 7.69439 6.69059C6.58231 7.80264 6.72466 9.30053 6.72466 11.4979C6.72466 13.7465 6.59965 15.2105 7.69439 16.3052C8.81008 17.4208 10.3304 17.2749 12.5018 17.2749C15.1632 17.2749 18.0752 17.5299 18.2443 13.8795C18.2942 12.8151 18.292 10.1814 18.2443 9.117C18.1489 7.08729 17.0593 5.85674 14.8835 5.75558ZM16.5665 15.5696C15.8374 16.2987 14.8264 16.2336 12.4867 16.2336C10.0782 16.2336 9.11213 16.2691 8.40687 15.5624C7.59467 14.7545 7.74208 13.4568 7.74208 11.4907C7.74208 6.68553 8.01739 6.74695 12.4794 6.74695L12.5011 6.7614C17.2862 6.7614 17.237 7.07139 17.237 11.4979C17.2377 13.878 17.2833 14.8499 16.5665 15.5696Z" fill="#FC573B"/>
<path d="M15.6096 9.07558C15.9872 9.07558 16.2933 8.76943 16.2933 8.39179C16.2933 8.01415 15.9872 7.70801 15.6096 7.70801C15.2319 7.70801 14.9258 8.01415 14.9258 8.39179C14.9258 8.76943 15.2319 9.07558 15.6096 9.07558Z" fill="#FD907E"/>
</g>
<defs>
<linearGradient id="paint0_linear" x1="2.4823" y1="21.5309" x2="23.8584" y2="3.03014" gradientUnits="userSpaceOnUse">
<stop stop-color="#FFDD55"/>
<stop offset="0.5" stop-color="#FF543E"/>
<stop offset="1" stop-color="#C837AB"/>
</linearGradient>
<clipPath id="clip0">
<rect width="23" height="23" fill="white" transform="translate(1)"/>
</clipPath>
</defs>
</svg>
