<svg width="1069" height="1054" viewBox="0 0 1069 1054" fill="none" xmlns="http://www.w3.org/2000/svg">
<path opacity="0.66" d="M799.127 53.9392C871.136 111.214 898.048 216.323 947.509 305.697C997.697 394.442 1070.43 466.823 1068.98 538.574C1068.25 610.325 991.878 681.447 933.689 758.233C876.228 834.39 836.223 916.841 764.941 976.004C693.66 1034.54 591.829 1070.41 505.273 1046.5C418.717 1022.58 348.163 940.128 264.516 887.259C181.597 833.76 86.3124 811.102 38.3065 758.233C-9.69937 705.364 -11.1541 622.283 25.9414 557.456C62.3095 493.257 137.228 446.682 181.597 387.519C225.239 328.985 239.058 257.234 285.61 186.742C332.161 115.62 410.716 46.3864 508.91 16.8048C607.831 -13.4062 726.391 -3.96523 799.127 53.9392Z" fill="url(#paint0_radial)"/>
<defs>
<radialGradient id="paint0_radial" cx="0" cy="0" r="1" gradientUnits="userSpaceOnUse" gradientTransform="translate(534.5 527) rotate(90) scale(527 534.5)">
<stop stop-color="#04465B"/>
<stop offset="1"/>
</radialGradient>
</defs>
</svg>
