<svg width="23" height="23" viewBox="0 0 23 23" fill="none" xmlns="http://www.w3.org/2000/svg">
<g clip-path="url(#clip0)">
<path d="M11.4999 22.9998C17.8511 22.9998 22.9998 17.8511 22.9998 11.4999C22.9998 5.14868 17.8511 0 11.4999 0C5.14868 0 0 5.14868 0 11.4999C0 17.8511 5.14868 22.9998 11.4999 22.9998Z" fill="#1A67A2"/>
<path d="M18.5427 8.2646C18.0499 8.48313 17.5198 8.63093 16.9638 8.69694C17.5314 8.35685 17.9671 7.81874 18.1727 7.17648C17.6415 7.49156 17.053 7.72013 16.4271 7.84334C15.9257 7.30932 15.2113 6.97559 14.4202 6.97559C12.9024 6.97559 11.6714 8.20659 11.6714 9.72439C11.6714 9.93984 11.6958 10.1495 11.743 10.3509C9.45848 10.2363 7.43291 9.14199 6.07706 7.47844C5.84049 7.88434 5.70479 8.35685 5.70479 8.86053C5.70479 9.81397 6.19042 10.6557 6.92759 11.1485C6.47721 11.1344 6.05308 11.0107 5.68265 10.8043C5.68244 10.816 5.68244 10.8277 5.68244 10.8392C5.68244 12.171 6.63035 13.2819 7.88759 13.5342C7.65717 13.5974 7.41384 13.6308 7.16354 13.6308C6.98602 13.6308 6.81402 13.6138 6.64634 13.5818C6.99606 14.6736 8.011 15.4684 9.21412 15.4907C8.27319 16.2281 7.0881 16.6674 5.79991 16.6674C5.57851 16.6674 5.35916 16.6545 5.14453 16.6289C6.36037 17.4091 7.80559 17.864 9.35783 17.864C14.4139 17.864 17.1789 13.6755 17.1789 10.0427C17.1789 9.92364 17.1762 9.80495 17.1709 9.68728C17.7084 9.29984 18.1743 8.81584 18.5427 8.2646Z" fill="#F1F2F2"/>
</g>
<defs>
<clipPath id="clip0">
<rect width="23" height="23" fill="white"/>
</clipPath>
</defs>
</svg>
