<?xml version="1.0" standalone="no"?>
<!DOCTYPE svg PUBLIC "-//W3C//DTD SVG 20010904//EN"
 "http://www.w3.org/TR/2001/REC-SVG-20010904/DTD/svg10.dtd">
<svg version="1.0" xmlns="http://www.w3.org/2000/svg"
 width="241.000000pt" height="241.000000pt" viewBox="0 0 241.000000 241.000000"
 preserveAspectRatio="xMidYMid meet">
<metadata>
Created by potrace 1.11, written by Peter Selinger 2001-2013
</metadata>
<g transform="translate(0.000000,241.000000) scale(0.100000,-0.100000)"
fill="#000000" stroke="none">
<path d="M1070 2383 c-188 -32 -310 -70 -430 -134 -222 -120 -400 -300 -509
-517 -34 -67 -102 -262 -96 -272 2 -3 181 -6 398 -6 l394 1 59 61 c33 34 78
71 102 83 26 13 42 28 42 39 0 17 -20 18 -357 18 -358 -1 -393 0 -393 13 0 4
26 48 59 97 49 73 105 137 205 230 27 26 137 95 201 127 85 42 212 81 318 98
73 11 260 8 332 -6 214 -41 398 -138 551 -290 473 -469 373 -1236 -206 -1582
-114 -68 -254 -117 -395 -138 -49 -7 -202 -7 -270 0 -211 23 -450 141 -611
303 -100 100 -209 265 -182 274 7 2 178 4 381 3 348 -1 367 0 367 17 0 10 -8
22 -17 25 -33 12 -77 47 -133 105 l-55 56 -397 0 c-219 0 -398 -2 -398 -4 0
-2 6 -27 14 -56 58 -214 151 -374 310 -533 187 -186 398 -296 655 -340 100
-17 285 -19 386 -4 444 67 831 398 959 819 40 133 53 225 51 361 -3 173 -20
258 -82 413 -145 365 -452 622 -863 721 -62 15 -334 28 -390 18z"/>
<path d="M1258 1628 c-2 -7 -4 -159 -3 -338 1 -306 2 -328 22 -371 16 -37 30
-51 69 -70 46 -22 62 -24 249 -27 l201 -3 0 70 -1 71 -120 1 c-150 0 -205 4
-227 14 -23 9 -34 53 -33 124 l0 56 128 3 c112 2 127 5 127 20 1 9 3 42 6 72
l6 55 -119 -2 c-65 0 -125 1 -133 3 -12 3 -15 22 -15 96 l0 93 175 1 c96 1
182 2 191 3 12 1 15 13 13 64 -1 34 -2 65 -3 70 0 4 -120 7 -265 7 -202 0
-265 -3 -268 -12z"/>
<path d="M6 1289 c-8 -40 -8 -117 0 -146 l6 -23 384 0 c302 0 382 3 379 13 -9
26 -12 107 -5 146 l7 41 -382 0 -382 0 -7 -31z"/>
</g>
</svg>
